<svg width="190" height="190" viewBox="0 0 190 190" fill="none" xmlns="http://www.w3.org/2000/svg">
<path d="M160.963 129.037C155.496 134.504 146.631 134.504 141.164 129.037L117.027 104.899C111.559 99.4319 111.559 90.5677 117.027 85.1004L141.164 60.963C146.631 55.4956 155.496 55.4956 160.963 60.963L185.101 85.1003C190.568 90.5677 190.568 99.4319 185.101 104.899L160.963 129.037ZM48.836 129.037C43.3687 134.504 34.5043 134.504 29.037 129.037L4.89958 104.899C-0.567758 99.4319 -0.567768 90.5677 4.89957 85.1004L29.037 60.963C34.5043 55.4956 43.3687 55.4956 48.836 60.963L72.9734 85.1003C78.4407 90.5677 78.4407 99.4319 72.9734 104.899L48.836 129.037ZM104.9 185.1C99.4321 190.568 90.568 190.568 85.1006 185.1L60.9632 160.963C55.4959 155.496 55.4959 146.631 60.9632 141.164L85.1006 117.027C90.568 111.559 99.4321 111.559 104.9 117.027L129.037 141.164C134.504 146.631 134.504 155.496 129.037 160.963L104.9 185.1ZM104.9 72.9731C99.4321 78.4404 90.568 78.4405 85.1006 72.9731L60.9632 48.8357C55.4959 43.3684 55.4959 34.5041 60.9632 29.0367L85.1006 4.89934C90.568 -0.568002 99.4321 -0.568012 104.9 4.89933L129.037 29.0367C134.504 34.5041 134.504 43.3684 129.037 48.8357L104.9 72.9731Z" fill="black"/>
</svg>
