<svg width="200" height="200" viewBox="0 0 200 200" fill="none" xmlns="http://www.w3.org/2000/svg">
<path d="M165.963 134.037C160.496 139.504 151.631 139.504 146.164 134.037L122.027 109.899C116.559 104.432 116.559 95.5677 122.027 90.1004L146.164 65.963C151.631 60.4956 160.496 60.4956 165.963 65.963L190.101 90.1003C195.568 95.5677 195.568 104.432 190.101 109.899L165.963 134.037ZM53.836 134.037C48.3687 139.504 39.5043 139.504 34.037 134.037L9.89958 109.899C4.43224 104.432 4.43223 95.5677 9.89957 90.1004L34.037 65.963C39.5043 60.4956 48.3687 60.4956 53.836 65.963L77.9734 90.1003C83.4407 95.5677 83.4407 104.432 77.9734 109.899L53.836 134.037ZM109.9 190.1C104.432 195.568 95.568 195.568 90.1006 190.1L65.9632 165.963C60.4959 160.496 60.4959 151.631 65.9632 146.164L90.1006 122.027C95.568 116.559 104.432 116.559 109.9 122.027L134.037 146.164C139.504 151.631 139.504 160.496 134.037 165.963L109.9 190.1ZM109.9 77.9731C104.432 83.4404 95.568 83.4405 90.1006 77.9731L65.9632 53.8357C60.4959 48.3684 60.4959 39.5041 65.9632 34.0367L90.1006 9.89934C95.568 4.432 104.432 4.43199 109.9 9.89933L134.037 34.0367C139.504 39.5041 139.504 48.3684 134.037 53.8357L109.9 77.9731Z" fill="black"/>
</svg>
